<mxfile host="app.diagrams.net" agent="Mozilla/5.0 (Macintosh; Intel Mac OS X 10_15_7) AppleWebKit/605.1.15 (KHTML, like Gecko) Version/18.0 Safari/605.1.15" version="26.0.5">
  <diagram name="第 1 页" id="msE7Y4YolB4r_sBkB5_t">
    <mxGraphModel dx="1622" dy="539" grid="1" gridSize="10" guides="1" tooltips="1" connect="1" arrows="1" fold="1" page="1" pageScale="1" pageWidth="827" pageHeight="1169" math="0" shadow="0">
      <root>
        <mxCell id="0" />
        <mxCell id="1" parent="0" />
        <mxCell id="loFnUEIgll6rvkdRuOgf-428" value="" style="rounded=0;whiteSpace=wrap;html=1;" parent="1" vertex="1">
          <mxGeometry x="-380.26" y="815" width="230" height="175" as="geometry" />
        </mxCell>
        <mxCell id="loFnUEIgll6rvkdRuOgf-226" value="" style="group;rotation=90;" parent="1" vertex="1" connectable="0">
          <mxGeometry x="-468.26" y="814" width="15.07" height="15" as="geometry" />
        </mxCell>
        <mxCell id="loFnUEIgll6rvkdRuOgf-227" value="" style="ellipse;whiteSpace=wrap;html=1;aspect=fixed;rotation=90;" parent="loFnUEIgll6rvkdRuOgf-226" vertex="1">
          <mxGeometry x="-4" y="-1" width="15" height="15" as="geometry" />
        </mxCell>
        <mxCell id="loFnUEIgll6rvkdRuOgf-228" value="" style="endArrow=none;html=1;rounded=0;entryX=0;entryY=0.5;entryDx=0;entryDy=0;exitX=1;exitY=0.5;exitDx=0;exitDy=0;strokeWidth=3;" parent="loFnUEIgll6rvkdRuOgf-226" source="loFnUEIgll6rvkdRuOgf-227" target="loFnUEIgll6rvkdRuOgf-227" edge="1">
          <mxGeometry width="50" height="50" relative="1" as="geometry">
            <mxPoint x="122" y="14" as="sourcePoint" />
            <mxPoint x="147" y="39" as="targetPoint" />
          </mxGeometry>
        </mxCell>
        <mxCell id="loFnUEIgll6rvkdRuOgf-229" value="" style="endArrow=none;html=1;rounded=0;exitX=0.5;exitY=1;exitDx=0;exitDy=0;entryX=0.5;entryY=0;entryDx=0;entryDy=0;strokeWidth=3;" parent="loFnUEIgll6rvkdRuOgf-226" source="loFnUEIgll6rvkdRuOgf-227" target="loFnUEIgll6rvkdRuOgf-227" edge="1">
          <mxGeometry width="50" height="50" relative="1" as="geometry">
            <mxPoint x="122" y="14" as="sourcePoint" />
            <mxPoint x="147" y="39" as="targetPoint" />
          </mxGeometry>
        </mxCell>
        <mxCell id="loFnUEIgll6rvkdRuOgf-231" value="" style="endArrow=none;html=1;rounded=0;exitX=0.426;exitY=1.006;exitDx=0;exitDy=0;exitPerimeter=0;fillColor=#e3c800;strokeColor=#B09500;" parent="1" source="loFnUEIgll6rvkdRuOgf-365" edge="1">
          <mxGeometry width="50" height="50" relative="1" as="geometry">
            <mxPoint x="-699.26" y="760" as="sourcePoint" />
            <mxPoint x="-699.26" y="820" as="targetPoint" />
          </mxGeometry>
        </mxCell>
        <mxCell id="loFnUEIgll6rvkdRuOgf-265" value="" style="endArrow=none;html=1;rounded=0;strokeColor=#FF00FF;" parent="1" target="loFnUEIgll6rvkdRuOgf-260" edge="1">
          <mxGeometry width="50" height="50" relative="1" as="geometry">
            <mxPoint x="-659.26" y="820" as="sourcePoint" />
            <mxPoint x="-619.04" y="770" as="targetPoint" />
          </mxGeometry>
        </mxCell>
        <mxCell id="loFnUEIgll6rvkdRuOgf-310" style="edgeStyle=orthogonalEdgeStyle;rounded=0;orthogonalLoop=1;jettySize=auto;html=1;exitX=0.5;exitY=1;exitDx=0;exitDy=0;entryX=0.5;entryY=0;entryDx=0;entryDy=0;" parent="1" source="loFnUEIgll6rvkdRuOgf-260" target="loFnUEIgll6rvkdRuOgf-280" edge="1">
          <mxGeometry relative="1" as="geometry" />
        </mxCell>
        <mxCell id="loFnUEIgll6rvkdRuOgf-260" value="Reset Cell" style="rounded=0;whiteSpace=wrap;html=1;fillColor=#ffe6cc;strokeColor=#d79b00;" parent="1" vertex="1">
          <mxGeometry x="-693.28" y="845" width="66.59" height="30" as="geometry" />
        </mxCell>
        <mxCell id="loFnUEIgll6rvkdRuOgf-266" value="" style="endArrow=none;html=1;rounded=0;" parent="1" edge="1">
          <mxGeometry width="50" height="50" relative="1" as="geometry">
            <mxPoint x="-523.28" y="820" as="sourcePoint" />
            <mxPoint x="-522.8268749999997" y="845" as="targetPoint" />
          </mxGeometry>
        </mxCell>
        <mxCell id="loFnUEIgll6rvkdRuOgf-322" style="edgeStyle=orthogonalEdgeStyle;rounded=0;orthogonalLoop=1;jettySize=auto;html=1;exitX=0.5;exitY=1;exitDx=0;exitDy=0;entryX=0.5;entryY=0;entryDx=0;entryDy=0;" parent="1" source="loFnUEIgll6rvkdRuOgf-262" target="loFnUEIgll6rvkdRuOgf-282" edge="1">
          <mxGeometry relative="1" as="geometry" />
        </mxCell>
        <mxCell id="loFnUEIgll6rvkdRuOgf-262" value="Update Cell" style="rounded=0;whiteSpace=wrap;html=1;fillColor=#ffe6cc;strokeColor=#d79b00;" parent="1" vertex="1">
          <mxGeometry x="-555.8499999999999" y="845" width="66.59" height="30" as="geometry" />
        </mxCell>
        <mxCell id="loFnUEIgll6rvkdRuOgf-312" style="edgeStyle=orthogonalEdgeStyle;rounded=0;orthogonalLoop=1;jettySize=auto;html=1;exitX=0.5;exitY=1;exitDx=0;exitDy=0;" parent="1" source="loFnUEIgll6rvkdRuOgf-280" edge="1">
          <mxGeometry relative="1" as="geometry">
            <mxPoint x="-660.1782352941176" y="950" as="targetPoint" />
          </mxGeometry>
        </mxCell>
        <mxCell id="loFnUEIgll6rvkdRuOgf-280" value="&lt;font face=&quot;Times New Roman&quot;&gt;R_t&lt;/font&gt;" style="ellipse;whiteSpace=wrap;html=1;aspect=fixed;fillColor=#f8cecc;strokeColor=#b85450;" parent="1" vertex="1">
          <mxGeometry x="-675.0600000000001" y="900" width="30" height="30" as="geometry" />
        </mxCell>
        <mxCell id="loFnUEIgll6rvkdRuOgf-334" style="edgeStyle=orthogonalEdgeStyle;rounded=0;orthogonalLoop=1;jettySize=auto;html=1;exitX=0;exitY=0.5;exitDx=0;exitDy=0;" parent="1" source="loFnUEIgll6rvkdRuOgf-282" edge="1">
          <mxGeometry relative="1" as="geometry">
            <mxPoint x="-579.26" y="830" as="targetPoint" />
          </mxGeometry>
        </mxCell>
        <mxCell id="loFnUEIgll6rvkdRuOgf-335" style="edgeStyle=orthogonalEdgeStyle;rounded=0;orthogonalLoop=1;jettySize=auto;html=1;exitX=1;exitY=0.5;exitDx=0;exitDy=0;" parent="1" source="loFnUEIgll6rvkdRuOgf-282" edge="1">
          <mxGeometry relative="1" as="geometry">
            <mxPoint x="-479.2600000000002" y="915.4705882352941" as="targetPoint" />
          </mxGeometry>
        </mxCell>
        <mxCell id="loFnUEIgll6rvkdRuOgf-282" value="&lt;font face=&quot;Times New Roman&quot;&gt;Z_t&lt;/font&gt;" style="ellipse;whiteSpace=wrap;html=1;aspect=fixed;fillColor=#f8cecc;strokeColor=#b85450;" parent="1" vertex="1">
          <mxGeometry x="-536.9899999999999" y="900" width="30" height="30" as="geometry" />
        </mxCell>
        <mxCell id="loFnUEIgll6rvkdRuOgf-292" value="" style="group;rotation=45;" parent="1" vertex="1" connectable="0">
          <mxGeometry x="-666.59" y="950" width="15.07" height="15" as="geometry" />
        </mxCell>
        <mxCell id="loFnUEIgll6rvkdRuOgf-293" value="" style="ellipse;whiteSpace=wrap;html=1;aspect=fixed;rotation=45;" parent="loFnUEIgll6rvkdRuOgf-292" vertex="1">
          <mxGeometry x="-1.1063333333333327" width="15" height="15" as="geometry" />
        </mxCell>
        <mxCell id="loFnUEIgll6rvkdRuOgf-294" value="" style="endArrow=none;html=1;rounded=0;entryX=0;entryY=0.5;entryDx=0;entryDy=0;exitX=1;exitY=0.5;exitDx=0;exitDy=0;strokeWidth=3;" parent="loFnUEIgll6rvkdRuOgf-292" source="loFnUEIgll6rvkdRuOgf-293" target="loFnUEIgll6rvkdRuOgf-293" edge="1">
          <mxGeometry width="50" height="50" relative="1" as="geometry">
            <mxPoint x="95.34166666666665" y="-70.5" as="sourcePoint" />
            <mxPoint x="130.505" y="-70.5" as="targetPoint" />
          </mxGeometry>
        </mxCell>
        <mxCell id="loFnUEIgll6rvkdRuOgf-295" value="" style="endArrow=none;html=1;rounded=0;exitX=0.5;exitY=1;exitDx=0;exitDy=0;entryX=0.5;entryY=0;entryDx=0;entryDy=0;strokeWidth=3;" parent="loFnUEIgll6rvkdRuOgf-292" source="loFnUEIgll6rvkdRuOgf-293" target="loFnUEIgll6rvkdRuOgf-293" edge="1">
          <mxGeometry width="50" height="50" relative="1" as="geometry">
            <mxPoint x="95.34166666666665" y="-70.5" as="sourcePoint" />
            <mxPoint x="130.505" y="-70.5" as="targetPoint" />
          </mxGeometry>
        </mxCell>
        <mxCell id="loFnUEIgll6rvkdRuOgf-300" value="" style="endArrow=none;html=1;rounded=0;" parent="1" edge="1">
          <mxGeometry width="50" height="50" relative="1" as="geometry">
            <mxPoint x="-653.1800000000001" y="958.4099999999999" as="sourcePoint" />
            <mxPoint x="-611.1800000000001" y="958.5" as="targetPoint" />
          </mxGeometry>
        </mxCell>
        <mxCell id="loFnUEIgll6rvkdRuOgf-311" value="" style="endArrow=none;html=1;rounded=0;fillColor=#e51400;strokeColor=#B20000;" parent="1" edge="1">
          <mxGeometry width="50" height="50" relative="1" as="geometry">
            <mxPoint x="-719.26" y="960" as="sourcePoint" />
            <mxPoint x="-719.26" y="820" as="targetPoint" />
          </mxGeometry>
        </mxCell>
        <mxCell id="loFnUEIgll6rvkdRuOgf-313" value="" style="endArrow=none;html=1;rounded=0;fillColor=#e3c800;strokeColor=#B09500;" parent="1" edge="1">
          <mxGeometry width="50" height="50" relative="1" as="geometry">
            <mxPoint x="-699.26" y="780" as="sourcePoint" />
            <mxPoint x="-599.26" y="780" as="targetPoint" />
          </mxGeometry>
        </mxCell>
        <mxCell id="loFnUEIgll6rvkdRuOgf-314" value="" style="endArrow=none;html=1;rounded=0;fillColor=#e3c800;strokeColor=#B09500;" parent="1" edge="1">
          <mxGeometry width="50" height="50" relative="1" as="geometry">
            <mxPoint x="-599.26" y="780" as="sourcePoint" />
            <mxPoint x="-599.26" y="940" as="targetPoint" />
          </mxGeometry>
        </mxCell>
        <mxCell id="loFnUEIgll6rvkdRuOgf-337" style="edgeStyle=orthogonalEdgeStyle;rounded=0;orthogonalLoop=1;jettySize=auto;html=1;exitX=1;exitY=0.5;exitDx=0;exitDy=0;entryX=0.5;entryY=1;entryDx=0;entryDy=0;" parent="1" source="loFnUEIgll6rvkdRuOgf-316" target="loFnUEIgll6rvkdRuOgf-336" edge="1">
          <mxGeometry relative="1" as="geometry" />
        </mxCell>
        <mxCell id="loFnUEIgll6rvkdRuOgf-316" value="H^_t" style="ellipse;whiteSpace=wrap;html=1;aspect=fixed;fillColor=#f8cecc;strokeColor=#b85450;" parent="1" vertex="1">
          <mxGeometry x="-539.26" y="942.5" width="30" height="30" as="geometry" />
        </mxCell>
        <mxCell id="loFnUEIgll6rvkdRuOgf-320" style="edgeStyle=orthogonalEdgeStyle;rounded=0;orthogonalLoop=1;jettySize=auto;html=1;exitX=1;exitY=0.5;exitDx=0;exitDy=0;entryX=0;entryY=0.5;entryDx=0;entryDy=0;" parent="1" source="loFnUEIgll6rvkdRuOgf-319" target="loFnUEIgll6rvkdRuOgf-316" edge="1">
          <mxGeometry relative="1" as="geometry" />
        </mxCell>
        <mxCell id="loFnUEIgll6rvkdRuOgf-319" value="tanh" style="rhombus;whiteSpace=wrap;html=1;fillColor=#e1d5e7;strokeColor=#9673a6;" parent="1" vertex="1">
          <mxGeometry x="-615.26" y="937.5" width="33" height="40" as="geometry" />
        </mxCell>
        <mxCell id="loFnUEIgll6rvkdRuOgf-330" value="" style="group;rotation=45;" parent="1" vertex="1" connectable="0">
          <mxGeometry x="-583.26" y="811" width="15.07" height="15" as="geometry" />
        </mxCell>
        <mxCell id="loFnUEIgll6rvkdRuOgf-331" value="" style="ellipse;whiteSpace=wrap;html=1;aspect=fixed;rotation=45;" parent="loFnUEIgll6rvkdRuOgf-330" vertex="1">
          <mxGeometry x="-3.516333333333333" y="1.5" width="15" height="15" as="geometry" />
        </mxCell>
        <mxCell id="loFnUEIgll6rvkdRuOgf-332" value="" style="endArrow=none;html=1;rounded=0;entryX=0;entryY=0.5;entryDx=0;entryDy=0;exitX=1;exitY=0.5;exitDx=0;exitDy=0;strokeWidth=3;" parent="loFnUEIgll6rvkdRuOgf-330" source="loFnUEIgll6rvkdRuOgf-331" target="loFnUEIgll6rvkdRuOgf-331" edge="1">
          <mxGeometry width="50" height="50" relative="1" as="geometry">
            <mxPoint x="92.93166666666666" y="-69" as="sourcePoint" />
            <mxPoint x="128.095" y="-69" as="targetPoint" />
          </mxGeometry>
        </mxCell>
        <mxCell id="loFnUEIgll6rvkdRuOgf-333" value="" style="endArrow=none;html=1;rounded=0;exitX=0.5;exitY=1;exitDx=0;exitDy=0;entryX=0.5;entryY=0;entryDx=0;entryDy=0;strokeWidth=3;" parent="loFnUEIgll6rvkdRuOgf-330" source="loFnUEIgll6rvkdRuOgf-331" target="loFnUEIgll6rvkdRuOgf-331" edge="1">
          <mxGeometry width="50" height="50" relative="1" as="geometry">
            <mxPoint x="92.93166666666666" y="-69" as="sourcePoint" />
            <mxPoint x="128.095" y="-69" as="targetPoint" />
          </mxGeometry>
        </mxCell>
        <mxCell id="loFnUEIgll6rvkdRuOgf-342" style="edgeStyle=orthogonalEdgeStyle;rounded=0;orthogonalLoop=1;jettySize=auto;html=1;exitX=0.5;exitY=0;exitDx=0;exitDy=0;" parent="1" source="loFnUEIgll6rvkdRuOgf-336" edge="1">
          <mxGeometry relative="1" as="geometry">
            <mxPoint x="-464.26" y="830" as="targetPoint" />
          </mxGeometry>
        </mxCell>
        <mxCell id="loFnUEIgll6rvkdRuOgf-336" value="&lt;font face=&quot;Times New Roman&quot;&gt;1 - Z&lt;/font&gt;" style="ellipse;whiteSpace=wrap;html=1;aspect=fixed;fillColor=#f8cecc;strokeColor=#b85450;" parent="1" vertex="1">
          <mxGeometry x="-479.2599999999999" y="900" width="30" height="30" as="geometry" />
        </mxCell>
        <mxCell id="loFnUEIgll6rvkdRuOgf-338" value="" style="group;rotation=45;" parent="1" vertex="1" connectable="0">
          <mxGeometry x="-469.26" y="948" width="15.07" height="15" as="geometry" />
        </mxCell>
        <mxCell id="loFnUEIgll6rvkdRuOgf-339" value="" style="ellipse;whiteSpace=wrap;html=1;aspect=fixed;rotation=45;" parent="loFnUEIgll6rvkdRuOgf-338" vertex="1">
          <mxGeometry x="-3.516333333333333" y="1.5" width="15" height="15" as="geometry" />
        </mxCell>
        <mxCell id="loFnUEIgll6rvkdRuOgf-340" value="" style="endArrow=none;html=1;rounded=0;entryX=0;entryY=0.5;entryDx=0;entryDy=0;exitX=1;exitY=0.5;exitDx=0;exitDy=0;strokeWidth=3;" parent="loFnUEIgll6rvkdRuOgf-338" source="loFnUEIgll6rvkdRuOgf-339" target="loFnUEIgll6rvkdRuOgf-339" edge="1">
          <mxGeometry width="50" height="50" relative="1" as="geometry">
            <mxPoint x="92.93166666666666" y="-69" as="sourcePoint" />
            <mxPoint x="128.095" y="-69" as="targetPoint" />
          </mxGeometry>
        </mxCell>
        <mxCell id="loFnUEIgll6rvkdRuOgf-341" value="" style="endArrow=none;html=1;rounded=0;exitX=0.5;exitY=1;exitDx=0;exitDy=0;entryX=0.5;entryY=0;entryDx=0;entryDy=0;strokeWidth=3;" parent="loFnUEIgll6rvkdRuOgf-338" source="loFnUEIgll6rvkdRuOgf-339" target="loFnUEIgll6rvkdRuOgf-339" edge="1">
          <mxGeometry width="50" height="50" relative="1" as="geometry">
            <mxPoint x="92.93166666666666" y="-69" as="sourcePoint" />
            <mxPoint x="128.095" y="-69" as="targetPoint" />
          </mxGeometry>
        </mxCell>
        <mxCell id="loFnUEIgll6rvkdRuOgf-364" value="" style="endArrow=classic;html=1;rounded=0;fillColor=#e51400;strokeColor=#B20000;" parent="1" edge="1">
          <mxGeometry width="50" height="50" relative="1" as="geometry">
            <mxPoint x="-719.26" y="959" as="sourcePoint" />
            <mxPoint x="-669.26" y="959" as="targetPoint" />
          </mxGeometry>
        </mxCell>
        <mxCell id="loFnUEIgll6rvkdRuOgf-365" value="&lt;font face=&quot;Times New Roman&quot;&gt;E_t&lt;/font&gt;" style="text;html=1;align=center;verticalAlign=middle;resizable=0;points=[];autosize=1;strokeColor=none;fillColor=none;" parent="1" vertex="1">
          <mxGeometry x="-717.06" y="690" width="40" height="30" as="geometry" />
        </mxCell>
        <mxCell id="loFnUEIgll6rvkdRuOgf-366" value="&lt;font face=&quot;Times New Roman&quot;&gt;H_t-1&lt;/font&gt;" style="text;html=1;align=center;verticalAlign=middle;resizable=0;points=[];autosize=1;strokeColor=none;fillColor=none;" parent="1" vertex="1">
          <mxGeometry x="-767.06" y="690" width="50" height="30" as="geometry" />
        </mxCell>
        <mxCell id="loFnUEIgll6rvkdRuOgf-367" value="" style="endArrow=none;html=1;rounded=0;fillColor=#76608a;strokeColor=#FFFF00;" parent="1" edge="1">
          <mxGeometry width="50" height="50" relative="1" as="geometry">
            <mxPoint x="-739" y="780" as="sourcePoint" />
            <mxPoint x="-739.26" y="720" as="targetPoint" />
          </mxGeometry>
        </mxCell>
        <mxCell id="loFnUEIgll6rvkdRuOgf-370" value="&lt;font face=&quot;Times New Roman&quot;&gt;H_t&lt;/font&gt;" style="rounded=1;whiteSpace=wrap;html=1;fillColor=#d5e8d4;strokeColor=#82b366;" parent="1" vertex="1">
          <mxGeometry x="-419.26" y="800" width="20" height="200" as="geometry" />
        </mxCell>
        <mxCell id="loFnUEIgll6rvkdRuOgf-372" value="" style="endArrow=classic;html=1;rounded=0;fillColor=#6a00ff;strokeColor=#3700CC;" parent="1" edge="1">
          <mxGeometry width="50" height="50" relative="1" as="geometry">
            <mxPoint x="-459" y="820" as="sourcePoint" />
            <mxPoint x="-419" y="820" as="targetPoint" />
          </mxGeometry>
        </mxCell>
        <mxCell id="loFnUEIgll6rvkdRuOgf-373" value="" style="endArrow=none;html=1;rounded=0;fillColor=#76608a;strokeColor=#432D57;" parent="1" edge="1">
          <mxGeometry width="50" height="50" relative="1" as="geometry">
            <mxPoint x="-739.26" y="780" as="sourcePoint" />
            <mxPoint x="-779.26" y="780" as="targetPoint" />
          </mxGeometry>
        </mxCell>
        <mxCell id="loFnUEIgll6rvkdRuOgf-374" value="&lt;font face=&quot;Times New Roman&quot;&gt;V_t&lt;/font&gt;" style="text;html=1;align=center;verticalAlign=middle;resizable=0;points=[];autosize=1;strokeColor=none;fillColor=none;" parent="1" vertex="1">
          <mxGeometry x="-810" y="757" width="40" height="30" as="geometry" />
        </mxCell>
        <mxCell id="loFnUEIgll6rvkdRuOgf-375" value="&lt;font face=&quot;Times New Roman&quot;&gt;Coord_t&lt;/font&gt;" style="text;html=1;align=center;verticalAlign=middle;resizable=0;points=[];autosize=1;strokeColor=none;fillColor=none;" parent="1" vertex="1">
          <mxGeometry x="-820" y="774" width="60" height="30" as="geometry" />
        </mxCell>
        <mxCell id="loFnUEIgll6rvkdRuOgf-378" value="" style="endArrow=none;html=1;rounded=0;fillColor=#e51400;strokeColor=#B20000;" parent="1" edge="1">
          <mxGeometry width="50" height="50" relative="1" as="geometry">
            <mxPoint x="-739.26" y="990" as="sourcePoint" />
            <mxPoint x="-739.26" y="820" as="targetPoint" />
          </mxGeometry>
        </mxCell>
        <mxCell id="loFnUEIgll6rvkdRuOgf-379" value="" style="endArrow=classic;html=1;rounded=0;entryX=-0.156;entryY=0.942;entryDx=0;entryDy=0;entryPerimeter=0;fillColor=#e51400;strokeColor=#B20000;" parent="1" target="loFnUEIgll6rvkdRuOgf-370" edge="1">
          <mxGeometry width="50" height="50" relative="1" as="geometry">
            <mxPoint x="-739.26" y="990" as="sourcePoint" />
            <mxPoint x="-479.26" y="800" as="targetPoint" />
          </mxGeometry>
        </mxCell>
        <mxCell id="loFnUEIgll6rvkdRuOgf-415" value="" style="endArrow=none;html=1;rounded=0;fillColor=#e51400;strokeColor=#B20000;" parent="1" edge="1">
          <mxGeometry width="50" height="50" relative="1" as="geometry">
            <mxPoint x="-739.26" y="990" as="sourcePoint" />
            <mxPoint x="-739.26" y="1010" as="targetPoint" />
          </mxGeometry>
        </mxCell>
        <mxCell id="loFnUEIgll6rvkdRuOgf-419" value="" style="group;rotation=90;" parent="1" vertex="1" connectable="0">
          <mxGeometry x="-86.6" y="893" width="15.07" height="15" as="geometry" />
        </mxCell>
        <mxCell id="loFnUEIgll6rvkdRuOgf-420" value="" style="ellipse;whiteSpace=wrap;html=1;aspect=fixed;rotation=90;" parent="loFnUEIgll6rvkdRuOgf-419" vertex="1">
          <mxGeometry x="-4" y="-1" width="15" height="15" as="geometry" />
        </mxCell>
        <mxCell id="loFnUEIgll6rvkdRuOgf-421" value="" style="endArrow=none;html=1;rounded=0;entryX=0;entryY=0.5;entryDx=0;entryDy=0;exitX=1;exitY=0.5;exitDx=0;exitDy=0;strokeWidth=3;" parent="loFnUEIgll6rvkdRuOgf-419" source="loFnUEIgll6rvkdRuOgf-420" target="loFnUEIgll6rvkdRuOgf-420" edge="1">
          <mxGeometry width="50" height="50" relative="1" as="geometry">
            <mxPoint x="122" y="14" as="sourcePoint" />
            <mxPoint x="147" y="39" as="targetPoint" />
          </mxGeometry>
        </mxCell>
        <mxCell id="loFnUEIgll6rvkdRuOgf-422" value="" style="endArrow=none;html=1;rounded=0;exitX=0.5;exitY=1;exitDx=0;exitDy=0;entryX=0.5;entryY=0;entryDx=0;entryDy=0;strokeWidth=3;" parent="loFnUEIgll6rvkdRuOgf-419" source="loFnUEIgll6rvkdRuOgf-420" target="loFnUEIgll6rvkdRuOgf-420" edge="1">
          <mxGeometry width="50" height="50" relative="1" as="geometry">
            <mxPoint x="122" y="14" as="sourcePoint" />
            <mxPoint x="147" y="39" as="targetPoint" />
          </mxGeometry>
        </mxCell>
        <mxCell id="loFnUEIgll6rvkdRuOgf-423" value="" style="endArrow=none;html=1;rounded=0;fillColor=#e51400;strokeColor=#B20000;" parent="1" edge="1">
          <mxGeometry width="50" height="50" relative="1" as="geometry">
            <mxPoint x="-740.26" y="1009" as="sourcePoint" />
            <mxPoint x="-80.25999999999999" y="1009" as="targetPoint" />
          </mxGeometry>
        </mxCell>
        <mxCell id="loFnUEIgll6rvkdRuOgf-424" value="" style="endArrow=classic;html=1;rounded=0;fillColor=#e51400;strokeColor=#B20000;" parent="1" edge="1">
          <mxGeometry width="50" height="50" relative="1" as="geometry">
            <mxPoint x="-82.67999999999999" y="1008" as="sourcePoint" />
            <mxPoint x="-82.67999999999999" y="908" as="targetPoint" />
          </mxGeometry>
        </mxCell>
        <mxCell id="loFnUEIgll6rvkdRuOgf-505" style="edgeStyle=orthogonalEdgeStyle;rounded=0;orthogonalLoop=1;jettySize=auto;html=1;exitX=0.5;exitY=1;exitDx=0;exitDy=0;entryX=0.5;entryY=1;entryDx=0;entryDy=0;" parent="1" source="loFnUEIgll6rvkdRuOgf-425" target="loFnUEIgll6rvkdRuOgf-500" edge="1">
          <mxGeometry relative="1" as="geometry">
            <mxPoint x="19.74000000000001" y="832.8571428571429" as="targetPoint" />
          </mxGeometry>
        </mxCell>
        <mxCell id="loFnUEIgll6rvkdRuOgf-425" value="Select Forget Gate" style="rounded=0;whiteSpace=wrap;html=1;rotation=-90;fillColor=#ffe6cc;strokeColor=#d79b00;" parent="1" vertex="1">
          <mxGeometry x="-101.19" y="886" width="118" height="27" as="geometry" />
        </mxCell>
        <mxCell id="loFnUEIgll6rvkdRuOgf-427" value="" style="endArrow=classic;html=1;rounded=0;entryX=0.5;entryY=0;entryDx=0;entryDy=0;" parent="1" target="loFnUEIgll6rvkdRuOgf-425" edge="1">
          <mxGeometry width="50" height="50" relative="1" as="geometry">
            <mxPoint x="-81.19" y="899.5" as="sourcePoint" />
            <mxPoint x="-260.6" y="849" as="targetPoint" />
          </mxGeometry>
        </mxCell>
        <mxCell id="loFnUEIgll6rvkdRuOgf-459" style="edgeStyle=orthogonalEdgeStyle;rounded=0;orthogonalLoop=1;jettySize=auto;html=1;exitX=1;exitY=0.5;exitDx=0;exitDy=0;entryX=0;entryY=0.5;entryDx=0;entryDy=0;" parent="1" source="loFnUEIgll6rvkdRuOgf-429" target="loFnUEIgll6rvkdRuOgf-458" edge="1">
          <mxGeometry relative="1" as="geometry" />
        </mxCell>
        <mxCell id="loFnUEIgll6rvkdRuOgf-429" value="" style="rounded=0;whiteSpace=wrap;html=1;" parent="1" vertex="1">
          <mxGeometry x="-370.26" y="825" width="80" height="25" as="geometry" />
        </mxCell>
        <mxCell id="loFnUEIgll6rvkdRuOgf-465" style="edgeStyle=orthogonalEdgeStyle;rounded=0;orthogonalLoop=1;jettySize=auto;html=1;exitX=1;exitY=0.5;exitDx=0;exitDy=0;entryX=0;entryY=0.5;entryDx=0;entryDy=0;" parent="1" source="loFnUEIgll6rvkdRuOgf-430" target="loFnUEIgll6rvkdRuOgf-460" edge="1">
          <mxGeometry relative="1" as="geometry" />
        </mxCell>
        <mxCell id="loFnUEIgll6rvkdRuOgf-430" value="" style="rounded=0;whiteSpace=wrap;html=1;" parent="1" vertex="1">
          <mxGeometry x="-370.26" y="862" width="80" height="25" as="geometry" />
        </mxCell>
        <mxCell id="loFnUEIgll6rvkdRuOgf-464" style="edgeStyle=orthogonalEdgeStyle;rounded=0;orthogonalLoop=1;jettySize=auto;html=1;exitX=1;exitY=0.5;exitDx=0;exitDy=0;entryX=0;entryY=0.5;entryDx=0;entryDy=0;" parent="1" source="loFnUEIgll6rvkdRuOgf-431" target="loFnUEIgll6rvkdRuOgf-461" edge="1">
          <mxGeometry relative="1" as="geometry" />
        </mxCell>
        <mxCell id="loFnUEIgll6rvkdRuOgf-431" value="" style="rounded=0;whiteSpace=wrap;html=1;" parent="1" vertex="1">
          <mxGeometry x="-370.26" y="900" width="80" height="25" as="geometry" />
        </mxCell>
        <mxCell id="loFnUEIgll6rvkdRuOgf-463" style="edgeStyle=orthogonalEdgeStyle;rounded=0;orthogonalLoop=1;jettySize=auto;html=1;exitX=1;exitY=0.5;exitDx=0;exitDy=0;entryX=0;entryY=0.5;entryDx=0;entryDy=0;" parent="1" source="loFnUEIgll6rvkdRuOgf-432" target="loFnUEIgll6rvkdRuOgf-462" edge="1">
          <mxGeometry relative="1" as="geometry" />
        </mxCell>
        <mxCell id="loFnUEIgll6rvkdRuOgf-432" value="" style="rounded=0;whiteSpace=wrap;html=1;" parent="1" vertex="1">
          <mxGeometry x="-370.26" y="950" width="80" height="25" as="geometry" />
        </mxCell>
        <mxCell id="loFnUEIgll6rvkdRuOgf-433" value="" style="endArrow=none;dashed=1;html=1;rounded=0;" parent="1" edge="1">
          <mxGeometry width="50" height="50" relative="1" as="geometry">
            <mxPoint x="-330.26" y="945" as="sourcePoint" />
            <mxPoint x="-330.26" y="925" as="targetPoint" />
          </mxGeometry>
        </mxCell>
        <mxCell id="loFnUEIgll6rvkdRuOgf-434" value="&lt;font style=&quot;font-size: 10px;&quot;&gt;Rel_1&lt;/font&gt;" style="text;html=1;align=center;verticalAlign=middle;resizable=0;points=[];autosize=1;strokeColor=none;fillColor=none;" parent="1" vertex="1">
          <mxGeometry x="-382.26" y="805" width="50" height="30" as="geometry" />
        </mxCell>
        <mxCell id="loFnUEIgll6rvkdRuOgf-435" value="&lt;font style=&quot;font-size: 10px;&quot;&gt;Rel_2&lt;/font&gt;" style="text;html=1;align=center;verticalAlign=middle;resizable=0;points=[];autosize=1;strokeColor=none;fillColor=none;" parent="1" vertex="1">
          <mxGeometry x="-383.26" y="842" width="50" height="30" as="geometry" />
        </mxCell>
        <mxCell id="loFnUEIgll6rvkdRuOgf-437" value="&lt;font style=&quot;font-size: 10px;&quot;&gt;Rel_3&lt;/font&gt;" style="text;html=1;align=center;verticalAlign=middle;resizable=0;points=[];autosize=1;strokeColor=none;fillColor=none;" parent="1" vertex="1">
          <mxGeometry x="-383.26" y="880" width="50" height="30" as="geometry" />
        </mxCell>
        <mxCell id="loFnUEIgll6rvkdRuOgf-438" value="&lt;font style=&quot;font-size: 10px;&quot;&gt;Rel_N&lt;/font&gt;" style="text;html=1;align=center;verticalAlign=middle;resizable=0;points=[];autosize=1;strokeColor=none;fillColor=none;" parent="1" vertex="1">
          <mxGeometry x="-382.26" y="930" width="50" height="30" as="geometry" />
        </mxCell>
        <mxCell id="loFnUEIgll6rvkdRuOgf-439" value="" style="rounded=0;whiteSpace=wrap;html=1;fillColor=#dae8fc;strokeColor=#6c8ebf;" parent="1" vertex="1">
          <mxGeometry x="-363.26" y="827.5" width="10" height="20" as="geometry" />
        </mxCell>
        <mxCell id="loFnUEIgll6rvkdRuOgf-440" value="" style="rounded=0;whiteSpace=wrap;html=1;fillColor=#dae8fc;strokeColor=#6c8ebf;" parent="1" vertex="1">
          <mxGeometry x="-349.26" y="827.5" width="10" height="20" as="geometry" />
        </mxCell>
        <mxCell id="loFnUEIgll6rvkdRuOgf-441" value="" style="rounded=0;whiteSpace=wrap;html=1;fillColor=#dae8fc;strokeColor=#6c8ebf;" parent="1" vertex="1">
          <mxGeometry x="-335.26" y="827.5" width="10" height="20" as="geometry" />
        </mxCell>
        <mxCell id="loFnUEIgll6rvkdRuOgf-442" value="" style="rounded=0;whiteSpace=wrap;html=1;fillColor=#dae8fc;strokeColor=#6c8ebf;" parent="1" vertex="1">
          <mxGeometry x="-321.26" y="827.5" width="10" height="20" as="geometry" />
        </mxCell>
        <mxCell id="loFnUEIgll6rvkdRuOgf-443" value="" style="rounded=0;whiteSpace=wrap;html=1;fillColor=#dae8fc;strokeColor=#6c8ebf;" parent="1" vertex="1">
          <mxGeometry x="-335.26" y="864.5" width="10" height="20" as="geometry" />
        </mxCell>
        <mxCell id="loFnUEIgll6rvkdRuOgf-444" value="" style="rounded=0;whiteSpace=wrap;html=1;fillColor=#dae8fc;strokeColor=#6c8ebf;" parent="1" vertex="1">
          <mxGeometry x="-310.26" y="864.5" width="10" height="20" as="geometry" />
        </mxCell>
        <mxCell id="loFnUEIgll6rvkdRuOgf-445" value="" style="rounded=0;whiteSpace=wrap;html=1;fillColor=#dae8fc;strokeColor=#6c8ebf;" parent="1" vertex="1">
          <mxGeometry x="-363.26" y="902.5" width="10" height="20" as="geometry" />
        </mxCell>
        <mxCell id="loFnUEIgll6rvkdRuOgf-446" value="" style="rounded=0;whiteSpace=wrap;html=1;fillColor=#dae8fc;strokeColor=#6c8ebf;" parent="1" vertex="1">
          <mxGeometry x="-321.26" y="902.5" width="10" height="20" as="geometry" />
        </mxCell>
        <mxCell id="loFnUEIgll6rvkdRuOgf-447" value="" style="rounded=0;whiteSpace=wrap;html=1;fillColor=#dae8fc;strokeColor=#6c8ebf;" parent="1" vertex="1">
          <mxGeometry x="-349.26" y="952.5" width="10" height="20" as="geometry" />
        </mxCell>
        <mxCell id="loFnUEIgll6rvkdRuOgf-449" value="" style="rounded=0;whiteSpace=wrap;html=1;fillColor=#dae8fc;strokeColor=#6c8ebf;" parent="1" vertex="1">
          <mxGeometry x="-335.26" y="952.5" width="10" height="20" as="geometry" />
        </mxCell>
        <mxCell id="loFnUEIgll6rvkdRuOgf-458" value="" style="rounded=0;whiteSpace=wrap;html=1;" parent="1" vertex="1">
          <mxGeometry x="-270.26" y="822.5" width="20" height="30" as="geometry" />
        </mxCell>
        <mxCell id="loFnUEIgll6rvkdRuOgf-460" value="" style="rounded=0;whiteSpace=wrap;html=1;" parent="1" vertex="1">
          <mxGeometry x="-270.26" y="859.5" width="20" height="30" as="geometry" />
        </mxCell>
        <mxCell id="loFnUEIgll6rvkdRuOgf-461" value="" style="rounded=0;whiteSpace=wrap;html=1;" parent="1" vertex="1">
          <mxGeometry x="-270.26" y="897.5" width="20" height="30" as="geometry" />
        </mxCell>
        <mxCell id="loFnUEIgll6rvkdRuOgf-462" value="" style="rounded=0;whiteSpace=wrap;html=1;" parent="1" vertex="1">
          <mxGeometry x="-270.26" y="947.5" width="20" height="30" as="geometry" />
        </mxCell>
        <mxCell id="loFnUEIgll6rvkdRuOgf-466" value="" style="group;rotation=90;" parent="1" vertex="1" connectable="0">
          <mxGeometry x="-219.26" y="892" width="15.07" height="15" as="geometry" />
        </mxCell>
        <mxCell id="loFnUEIgll6rvkdRuOgf-467" value="" style="ellipse;whiteSpace=wrap;html=1;aspect=fixed;rotation=90;" parent="loFnUEIgll6rvkdRuOgf-466" vertex="1">
          <mxGeometry x="-4" y="-1" width="15" height="15" as="geometry" />
        </mxCell>
        <mxCell id="loFnUEIgll6rvkdRuOgf-468" value="" style="endArrow=none;html=1;rounded=0;entryX=0;entryY=0.5;entryDx=0;entryDy=0;exitX=1;exitY=0.5;exitDx=0;exitDy=0;strokeWidth=3;" parent="loFnUEIgll6rvkdRuOgf-466" source="loFnUEIgll6rvkdRuOgf-467" target="loFnUEIgll6rvkdRuOgf-467" edge="1">
          <mxGeometry width="50" height="50" relative="1" as="geometry">
            <mxPoint x="122" y="14" as="sourcePoint" />
            <mxPoint x="147" y="39" as="targetPoint" />
          </mxGeometry>
        </mxCell>
        <mxCell id="loFnUEIgll6rvkdRuOgf-469" value="" style="endArrow=none;html=1;rounded=0;exitX=0.5;exitY=1;exitDx=0;exitDy=0;entryX=0.5;entryY=0;entryDx=0;entryDy=0;strokeWidth=3;" parent="loFnUEIgll6rvkdRuOgf-466" source="loFnUEIgll6rvkdRuOgf-467" target="loFnUEIgll6rvkdRuOgf-467" edge="1">
          <mxGeometry width="50" height="50" relative="1" as="geometry">
            <mxPoint x="122" y="14" as="sourcePoint" />
            <mxPoint x="147" y="39" as="targetPoint" />
            <Array as="points">
              <mxPoint x="10" y="7" />
            </Array>
          </mxGeometry>
        </mxCell>
        <mxCell id="loFnUEIgll6rvkdRuOgf-472" value="" style="curved=1;endArrow=classic;html=1;rounded=0;" parent="1" edge="1">
          <mxGeometry width="50" height="50" relative="1" as="geometry">
            <mxPoint x="-250.26" y="963" as="sourcePoint" />
            <mxPoint x="-220.26" y="900" as="targetPoint" />
            <Array as="points">
              <mxPoint x="-240.26" y="963" />
              <mxPoint x="-240.26" y="910" />
              <mxPoint x="-230.26" y="900" />
            </Array>
          </mxGeometry>
        </mxCell>
        <mxCell id="loFnUEIgll6rvkdRuOgf-474" value="" style="curved=1;endArrow=classic;html=1;rounded=0;" parent="1" edge="1">
          <mxGeometry width="50" height="50" relative="1" as="geometry">
            <mxPoint x="-250.26" y="837" as="sourcePoint" />
            <mxPoint x="-220.26" y="900" as="targetPoint" />
            <Array as="points">
              <mxPoint x="-240.26" y="850" />
              <mxPoint x="-240.26" y="890" />
            </Array>
          </mxGeometry>
        </mxCell>
        <mxCell id="loFnUEIgll6rvkdRuOgf-475" value="" style="curved=1;endArrow=classic;html=1;rounded=0;exitX=1;exitY=0.5;exitDx=0;exitDy=0;" parent="1" source="loFnUEIgll6rvkdRuOgf-461" edge="1">
          <mxGeometry width="50" height="50" relative="1" as="geometry">
            <mxPoint x="-265.33" y="948" as="sourcePoint" />
            <mxPoint x="-215.32999999999998" y="898" as="targetPoint" />
            <Array as="points">
              <mxPoint x="-240.26" y="900" />
            </Array>
          </mxGeometry>
        </mxCell>
        <mxCell id="loFnUEIgll6rvkdRuOgf-476" value="" style="curved=1;endArrow=classic;html=1;rounded=0;" parent="1" edge="1">
          <mxGeometry width="50" height="50" relative="1" as="geometry">
            <mxPoint x="-250.26" y="875" as="sourcePoint" />
            <mxPoint x="-220.26" y="900" as="targetPoint" />
            <Array as="points">
              <mxPoint x="-250.26" y="900" />
            </Array>
          </mxGeometry>
        </mxCell>
        <mxCell id="loFnUEIgll6rvkdRuOgf-479" style="edgeStyle=orthogonalEdgeStyle;rounded=0;orthogonalLoop=1;jettySize=auto;html=1;exitX=1;exitY=0.5;exitDx=0;exitDy=0;" parent="1" source="loFnUEIgll6rvkdRuOgf-477" edge="1">
          <mxGeometry relative="1" as="geometry">
            <mxPoint x="-130.26" y="898.5" as="targetPoint" />
          </mxGeometry>
        </mxCell>
        <mxCell id="loFnUEIgll6rvkdRuOgf-477" value="Relu" style="rhombus;whiteSpace=wrap;html=1;fillColor=#e1d5e7;strokeColor=#9673a6;" parent="1" vertex="1">
          <mxGeometry x="-192.26" y="878.5" width="33" height="40" as="geometry" />
        </mxCell>
        <mxCell id="loFnUEIgll6rvkdRuOgf-478" style="edgeStyle=orthogonalEdgeStyle;rounded=0;orthogonalLoop=1;jettySize=auto;html=1;exitX=0.5;exitY=0;exitDx=0;exitDy=0;entryX=0;entryY=0.5;entryDx=0;entryDy=0;" parent="1" source="loFnUEIgll6rvkdRuOgf-467" target="loFnUEIgll6rvkdRuOgf-477" edge="1">
          <mxGeometry relative="1" as="geometry" />
        </mxCell>
        <mxCell id="loFnUEIgll6rvkdRuOgf-482" style="edgeStyle=orthogonalEdgeStyle;rounded=0;orthogonalLoop=1;jettySize=auto;html=1;exitX=1;exitY=0.5;exitDx=0;exitDy=0;entryX=0.07;entryY=0.672;entryDx=0;entryDy=0;entryPerimeter=0;" parent="1" source="loFnUEIgll6rvkdRuOgf-370" target="loFnUEIgll6rvkdRuOgf-437" edge="1">
          <mxGeometry relative="1" as="geometry" />
        </mxCell>
        <mxCell id="loFnUEIgll6rvkdRuOgf-484" style="edgeStyle=orthogonalEdgeStyle;rounded=0;orthogonalLoop=1;jettySize=auto;html=1;exitX=1;exitY=0.5;exitDx=0;exitDy=0;" parent="1" source="loFnUEIgll6rvkdRuOgf-483" edge="1">
          <mxGeometry relative="1" as="geometry">
            <mxPoint x="-90.25999999999999" y="899" as="targetPoint" />
          </mxGeometry>
        </mxCell>
        <mxCell id="loFnUEIgll6rvkdRuOgf-483" value="" style="rounded=0;whiteSpace=wrap;html=1;fillColor=#e51400;strokeColor=#B20000;fontColor=#ffffff;" parent="1" vertex="1">
          <mxGeometry x="-131.26" y="858.5" width="21" height="81.5" as="geometry" />
        </mxCell>
        <mxCell id="loFnUEIgll6rvkdRuOgf-486" value="" style="group;fillOpacity=90;" parent="1" vertex="1" connectable="0">
          <mxGeometry x="-112.25999999999999" y="730" width="112" height="53.5" as="geometry" />
        </mxCell>
        <mxCell id="loFnUEIgll6rvkdRuOgf-487" value="" style="rounded=1;whiteSpace=wrap;html=1;" parent="loFnUEIgll6rvkdRuOgf-486" vertex="1">
          <mxGeometry width="112" height="25" as="geometry" />
        </mxCell>
        <mxCell id="loFnUEIgll6rvkdRuOgf-488" value="" style="ellipse;whiteSpace=wrap;html=1;aspect=fixed;fillColor=#d5e8d4;strokeColor=#82b366;fillOpacity=90;" parent="loFnUEIgll6rvkdRuOgf-486" vertex="1">
          <mxGeometry x="7.002578947368412" y="5.46875" width="14.0625" height="14.0625" as="geometry" />
        </mxCell>
        <mxCell id="loFnUEIgll6rvkdRuOgf-489" value="" style="ellipse;whiteSpace=wrap;html=1;aspect=fixed;fillColor=#d5e8d4;strokeColor=#82b366;fillOpacity=90;" parent="loFnUEIgll6rvkdRuOgf-486" vertex="1">
          <mxGeometry x="35.00257894736841" y="5.46875" width="14.0625" height="14.0625" as="geometry" />
        </mxCell>
        <mxCell id="loFnUEIgll6rvkdRuOgf-490" value="" style="ellipse;whiteSpace=wrap;html=1;aspect=fixed;fillColor=#d5e8d4;strokeColor=#82b366;fillOpacity=90;" parent="loFnUEIgll6rvkdRuOgf-486" vertex="1">
          <mxGeometry x="63.00257894736841" y="5.46875" width="14.0625" height="14.0625" as="geometry" />
        </mxCell>
        <mxCell id="loFnUEIgll6rvkdRuOgf-491" value="" style="ellipse;whiteSpace=wrap;html=1;aspect=fixed;fillColor=#d5e8d4;strokeColor=#82b366;fillOpacity=90;" parent="loFnUEIgll6rvkdRuOgf-486" vertex="1">
          <mxGeometry x="90.12757894736842" y="5.46875" width="14.0625" height="14.0625" as="geometry" />
        </mxCell>
        <mxCell id="loFnUEIgll6rvkdRuOgf-492" value="" style="group" parent="loFnUEIgll6rvkdRuOgf-486" vertex="1" connectable="0">
          <mxGeometry x="-28" y="-28.5" width="140" height="82" as="geometry" />
        </mxCell>
        <mxCell id="loFnUEIgll6rvkdRuOgf-493" value="&lt;font face=&quot;Times New Roman&quot;&gt;H_t&lt;/font&gt;" style="text;html=1;align=center;verticalAlign=middle;resizable=0;points=[];autosize=1;strokeColor=none;fillColor=none;" parent="loFnUEIgll6rvkdRuOgf-492" vertex="1">
          <mxGeometry x="20" width="40" height="30" as="geometry" />
        </mxCell>
        <mxCell id="loFnUEIgll6rvkdRuOgf-494" value="" style="group" parent="1" vertex="1" connectable="0">
          <mxGeometry x="-126.25999999999999" y="742.5" width="112" height="25" as="geometry" />
        </mxCell>
        <mxCell id="loFnUEIgll6rvkdRuOgf-495" value="" style="rounded=1;whiteSpace=wrap;html=1;" parent="loFnUEIgll6rvkdRuOgf-494" vertex="1">
          <mxGeometry width="112" height="25" as="geometry" />
        </mxCell>
        <mxCell id="loFnUEIgll6rvkdRuOgf-496" value="" style="ellipse;whiteSpace=wrap;html=1;aspect=fixed;fillColor=#d5e8d4;strokeColor=#82b366;fillOpacity=90;" parent="loFnUEIgll6rvkdRuOgf-494" vertex="1">
          <mxGeometry x="7.002578947368412" y="5.46875" width="14.0625" height="14.0625" as="geometry" />
        </mxCell>
        <mxCell id="loFnUEIgll6rvkdRuOgf-497" value="" style="ellipse;whiteSpace=wrap;html=1;aspect=fixed;fillColor=#d5e8d4;strokeColor=#82b366;fillOpacity=90;" parent="loFnUEIgll6rvkdRuOgf-494" vertex="1">
          <mxGeometry x="35.00257894736841" y="5.46875" width="14.0625" height="14.0625" as="geometry" />
        </mxCell>
        <mxCell id="loFnUEIgll6rvkdRuOgf-498" value="" style="ellipse;whiteSpace=wrap;html=1;aspect=fixed;fillColor=#d5e8d4;strokeColor=#82b366;fillOpacity=90;" parent="loFnUEIgll6rvkdRuOgf-494" vertex="1">
          <mxGeometry x="63.00257894736841" y="5.46875" width="14.0625" height="14.0625" as="geometry" />
        </mxCell>
        <mxCell id="loFnUEIgll6rvkdRuOgf-499" value="" style="ellipse;whiteSpace=wrap;html=1;aspect=fixed;fillColor=#d5e8d4;strokeColor=#82b366;fillOpacity=90;" parent="loFnUEIgll6rvkdRuOgf-494" vertex="1">
          <mxGeometry x="90.12757894736842" y="5.46875" width="14.0625" height="14.0625" as="geometry" />
        </mxCell>
        <mxCell id="loFnUEIgll6rvkdRuOgf-500" value="" style="rounded=1;whiteSpace=wrap;html=1;" parent="1" vertex="1">
          <mxGeometry x="-140.26" y="755" width="112" height="25" as="geometry" />
        </mxCell>
        <mxCell id="loFnUEIgll6rvkdRuOgf-501" value="" style="ellipse;whiteSpace=wrap;html=1;aspect=fixed;fillColor=#d5e8d4;strokeColor=#82b366;fillOpacity=90;" parent="1" vertex="1">
          <mxGeometry x="-133.25742105263157" y="760.46875" width="14.0625" height="14.0625" as="geometry" />
        </mxCell>
        <mxCell id="loFnUEIgll6rvkdRuOgf-502" value="" style="ellipse;whiteSpace=wrap;html=1;aspect=fixed;fillColor=#d5e8d4;strokeColor=#82b366;fillOpacity=90;" parent="1" vertex="1">
          <mxGeometry x="-105.25742105263157" y="760.46875" width="14.0625" height="14.0625" as="geometry" />
        </mxCell>
        <mxCell id="loFnUEIgll6rvkdRuOgf-503" value="" style="ellipse;whiteSpace=wrap;html=1;aspect=fixed;fillColor=#d5e8d4;strokeColor=#82b366;fillOpacity=90;" parent="1" vertex="1">
          <mxGeometry x="-77.25742105263157" y="760.46875" width="14.0625" height="14.0625" as="geometry" />
        </mxCell>
        <mxCell id="loFnUEIgll6rvkdRuOgf-504" value="" style="ellipse;whiteSpace=wrap;html=1;aspect=fixed;fillColor=#d5e8d4;strokeColor=#82b366;fillOpacity=90;" parent="1" vertex="1">
          <mxGeometry x="-50.13499999999999" y="760.46875" width="13.28125" height="13.28125" as="geometry" />
        </mxCell>
        <mxCell id="V59YXQS9HJ7cfA_IhKoO-1" value="" style="group;rotation=90;" vertex="1" connectable="0" parent="1">
          <mxGeometry x="-703" y="813" width="15.07" height="15" as="geometry" />
        </mxCell>
        <mxCell id="V59YXQS9HJ7cfA_IhKoO-2" value="" style="ellipse;whiteSpace=wrap;html=1;aspect=fixed;rotation=90;" vertex="1" parent="V59YXQS9HJ7cfA_IhKoO-1">
          <mxGeometry x="-4" y="-1" width="15" height="15" as="geometry" />
        </mxCell>
        <mxCell id="V59YXQS9HJ7cfA_IhKoO-3" value="" style="endArrow=none;html=1;rounded=0;entryX=0;entryY=0.5;entryDx=0;entryDy=0;exitX=1;exitY=0.5;exitDx=0;exitDy=0;strokeWidth=3;" edge="1" parent="V59YXQS9HJ7cfA_IhKoO-1" source="V59YXQS9HJ7cfA_IhKoO-2" target="V59YXQS9HJ7cfA_IhKoO-2">
          <mxGeometry width="50" height="50" relative="1" as="geometry">
            <mxPoint x="122" y="14" as="sourcePoint" />
            <mxPoint x="147" y="39" as="targetPoint" />
          </mxGeometry>
        </mxCell>
        <mxCell id="V59YXQS9HJ7cfA_IhKoO-4" value="" style="endArrow=none;html=1;rounded=0;exitX=0.5;exitY=1;exitDx=0;exitDy=0;entryX=0.5;entryY=0;entryDx=0;entryDy=0;strokeWidth=3;" edge="1" parent="V59YXQS9HJ7cfA_IhKoO-1" source="V59YXQS9HJ7cfA_IhKoO-2" target="V59YXQS9HJ7cfA_IhKoO-2">
          <mxGeometry width="50" height="50" relative="1" as="geometry">
            <mxPoint x="122" y="14" as="sourcePoint" />
            <mxPoint x="147" y="39" as="targetPoint" />
          </mxGeometry>
        </mxCell>
        <mxCell id="V59YXQS9HJ7cfA_IhKoO-5" value="" style="endArrow=none;html=1;rounded=0;fillColor=#e51400;strokeColor=#B20000;" edge="1" parent="1">
          <mxGeometry width="50" height="50" relative="1" as="geometry">
            <mxPoint x="-738" y="820" as="sourcePoint" />
            <mxPoint x="-708" y="820" as="targetPoint" />
            <Array as="points">
              <mxPoint x="-738" y="820" />
            </Array>
          </mxGeometry>
        </mxCell>
        <mxCell id="V59YXQS9HJ7cfA_IhKoO-7" value="" style="endArrow=none;html=1;rounded=0;fillColor=#b0e3e6;strokeColor=#FF00FF;entryX=0;entryY=1;entryDx=0;entryDy=0;" edge="1" parent="1" target="loFnUEIgll6rvkdRuOgf-331">
          <mxGeometry width="50" height="50" relative="1" as="geometry">
            <mxPoint x="-690" y="820" as="sourcePoint" />
            <mxPoint x="-590" y="820" as="targetPoint" />
          </mxGeometry>
        </mxCell>
        <mxCell id="V59YXQS9HJ7cfA_IhKoO-8" value="" style="endArrow=none;html=1;rounded=0;exitX=1;exitY=0;exitDx=0;exitDy=0;fillColor=#a0522d;strokeColor=#FF3399;entryX=0.5;entryY=1;entryDx=0;entryDy=0;" edge="1" parent="1" source="loFnUEIgll6rvkdRuOgf-331" target="loFnUEIgll6rvkdRuOgf-227">
          <mxGeometry width="50" height="50" relative="1" as="geometry">
            <mxPoint x="-420" y="890" as="sourcePoint" />
            <mxPoint x="-480" y="820" as="targetPoint" />
          </mxGeometry>
        </mxCell>
        <mxCell id="V59YXQS9HJ7cfA_IhKoO-9" value="" style="endArrow=none;html=1;rounded=0;fillColor=#e51400;strokeColor=#B20000;" edge="1" parent="1">
          <mxGeometry width="50" height="50" relative="1" as="geometry">
            <mxPoint x="-739" y="780" as="sourcePoint" />
            <mxPoint x="-739" y="820" as="targetPoint" />
          </mxGeometry>
        </mxCell>
      </root>
    </mxGraphModel>
  </diagram>
</mxfile>
